<svg xmlns="http://www.w3.org/2000/svg" width="1024.0" height="1024.0" viewBox="0 0 1024.0 1024.0" data-eshine-id="2aa571df-b60d-49ce-825e-62c5cb71ddab" data-eshine-version="1" data-eshine-generator="ESHINE">
<desc>Made with ESHINE — https://eshine.app</desc>
<a xmlns:xlink="http://www.w3.org/1999/xlink" xlink:href="https://eshine.app" href="https://eshine.app" target="_blank" rel="noopener noreferrer">

  <g id="me" transform="translate(408.00 493.00) rotate(0.00) scale(1.0000) translate(-382.00 -531.00)">
    <path d="M 216.002 348.005 L 218.003 352.003 L 236.002 358.003 L 258.003 353.996 L 264.000 356.004 L 275.998 349.997 L 282.003 354.003 L 294.001 354.001 L 296.00 350.00 L 302.00 356.00 L 314.00 358.00 L 332.00 370.00 L 334.00 368.00 L 352.00 382.00 L 356.00 386.00 L 354.00 388.00 L 362.00 392.00 L 360.00 394.00 L 366.00 404.00 L 372.00 400.00 L 378.00 410.00 L 378.00 420.00 L 384.00 414.00 L 382.00 410.00 L 388.00 402.00 L 386.00 398.00 L 390.00 400.00 L 400.00 386.00 L 434.00 362.00 L 456.00 358.00 L 490.00 358.00 L 496.00 362.00 L 500.00 358.00 L 504.00 362.00 L 512.00 362.00 L 530.00 356.00 L 528.00 390.00 L 522.00 398.00 L 524.00 400.00 L 518.00 414.00 L 502.00 430.00 L 490.00 436.00 L 482.00 446.00 L 482.00 452.00 L 472.00 448.00 L 468.00 454.00 L 456.00 460.00 L 448.00 458.00 L 430.00 464.00 L 426.00 460.00 L 420.00 466.00 L 406.00 466.00 L 398.00 500.00 L 404.00 506.00 L 398.00 508.00 L 398.00 530.00 L 394.00 536.00 L 398.00 540.00 L 398.00 552.00 L 406.00 548.00 L 412.00 536.00 L 404.00 564.00 L 406.00 598.00 L 410.00 612.00 L 416.00 618.00 L 422.00 600.00 L 428.00 604.00 L 436.00 602.00 L 444.00 612.00 L 450.00 602.00 L 452.00 604.00 L 464.00 598.00 L 472.00 606.00 L 472.00 614.00 L 458.00 628.00 L 464.00 632.00 L 462.00 638.00 L 470.00 644.00 L 480.00 646.00 L 480.00 634.00 L 488.00 640.00 L 482.00 642.00 L 486.00 648.00 L 494.00 640.00 L 492.00 638.00 L 500.00 638.00 L 498.00 640.00 L 504.00 644.00 L 498.00 648.00 L 500.00 650.00 L 510.00 648.00 L 512.00 652.00 L 520.00 652.00 L 524.00 656.00 L 532.00 650.00 L 532.00 656.00 L 546.00 654.00 L 548.00 656.00 L 544.00 660.00 L 558.00 666.00 L 600.00 668.00 L 588.00 670.00 L 586.00 674.00 L 552.00 674.00 L 544.00 680.00 L 552.00 682.00 L 544.00 682.00 L 534.00 690.00 L 516.00 690.00 L 514.00 694.00 L 512.00 690.00 L 508.00 694.00 L 502.00 690.00 L 486.00 690.00 L 484.00 684.00 L 478.00 692.00 L 470.00 688.00 L 460.00 690.00 L 464.00 684.00 L 458.00 680.00 L 454.00 684.00 L 430.00 684.00 L 422.00 688.00 L 420.00 684.00 L 416.00 688.00 L 430.00 696.00 L 426.00 702.00 L 430.00 704.00 L 428.00 706.00 L 398.00 704.00 L 394.00 698.00 L 392.00 702.00 L 384.00 696.00 L 382.00 700.00 L 376.00 698.00 L 368.00 702.00 L 364.00 698.00 L 350.00 708.00 L 308.00 704.00 L 304.00 698.00 L 268.00 708.00 L 284.00 698.00 L 278.00 692.00 L 270.00 692.00 L 274.00 690.00 L 272.00 686.00 L 266.00 688.00 L 262.00 684.00 L 258.00 688.00 L 248.00 684.00 L 246.00 694.00 L 248.00 690.00 L 240.00 688.00 L 236.00 704.00 L 230.00 704.00 L 222.00 694.00 L 236.00 684.00 L 232.00 680.00 L 208.00 680.00 L 206.00 676.00 L 212.00 676.00 L 212.00 670.00 L 194.00 674.00 L 186.00 674.00 L 184.00 670.00 L 176.00 674.00 L 180.00 672.00 L 178.00 668.00 L 162.00 670.00 L 188.00 664.00 L 192.00 666.00 L 210.00 658.00 L 214.00 662.00 L 228.00 652.00 L 246.00 652.00 L 266.00 644.00 L 268.00 642.00 L 264.00 640.00 L 268.00 636.00 L 252.00 628.00 L 244.00 618.00 L 246.00 608.00 L 256.00 602.00 L 262.00 602.00 L 272.00 610.00 L 274.00 620.00 L 268.00 628.00 L 286.00 636.00 L 286.00 632.00 L 294.00 632.00 L 302.00 624.00 L 296.00 620.00 L 296.00 612.00 L 290.00 606.00 L 296.00 598.00 L 292.00 592.00 L 308.00 606.00 L 310.00 600.00 L 314.00 604.00 L 314.00 600.00 L 320.00 596.00 L 328.00 606.00 L 324.00 610.00 L 332.00 612.00 L 330.00 598.00 L 334.00 592.00 L 330.00 590.00 L 336.00 586.00 L 340.00 592.00 L 344.00 588.00 L 340.00 586.00 L 344.00 584.00 L 340.00 530.00 L 342.00 528.00 L 346.00 540.00 L 350.00 534.00 L 342.00 490.00 L 336.00 484.00 L 332.00 470.00 L 322.00 460.00 L 316.00 464.00 L 310.00 460.00 L 300.00 460.00 L 298.00 456.00 L 292.00 458.00 L 288.00 454.00 L 280.00 454.00 L 276.00 448.00 L 272.00 450.00 L 248.00 430.00 L 228.00 400.00 L 220.00 374.00 L 220.00 362.00 L 214.00 352.00 L 216.00 350.00 Z" fill="#000000" fill-opacity="1.000" stroke="#2A2A2A" stroke-opacity="1.000" stroke-width="2.0"/>
  </g>
  <g id="e" transform="translate(457.24 469.76) rotate(0.00) scale(0.8000) translate(-737.00 -510.00)">
    <path d="M 786.00 406.00 L 790.00 406.00 L 792.00 412.00 L 794.00 408.00 L 802.00 408.00 L 796.00 410.00 L 826.00 416.00 L 806.00 418.00 L 800.00 414.00 L 786.00 414.00 L 784.00 418.00 L 782.00 414.00 L 774.00 418.00 L 778.00 416.00 L 772.00 408.00 L 768.00 410.00 L 770.00 414.00 L 766.00 418.00 L 760.00 414.00 L 740.00 416.00 L 732.00 426.00 L 740.00 430.00 L 736.00 430.00 L 734.00 432.00 L 738.00 434.00 L 734.00 436.00 L 742.00 442.00 L 748.00 440.00 L 746.00 436.00 L 752.00 436.00 L 752.00 440.00 L 756.00 436.00 L 758.00 438.00 L 760.00 430.00 L 764.00 434.00 L 778.00 430.00 L 780.00 422.00 L 786.00 426.00 L 808.00 426.00 L 770.00 438.00 L 706.00 450.00 L 696.00 458.00 L 698.00 484.00 L 702.00 490.00 L 730.00 484.00 L 736.00 486.00 L 732.00 488.00 L 734.00 492.00 L 736.00 490.00 L 734.00 494.00 L 730.00 490.00 L 722.00 492.00 L 726.00 502.00 L 732.00 498.00 L 736.00 498.00 L 736.00 502.00 L 740.00 498.00 L 742.00 500.00 L 742.00 490.00 L 746.00 490.00 L 744.00 496.00 L 750.00 502.00 L 752.00 498.00 L 754.00 500.00 L 760.00 496.00 L 756.00 492.00 L 762.00 494.00 L 766.00 486.00 L 772.00 486.00 L 772.00 482.00 L 794.00 482.00 L 784.00 482.00 L 770.00 488.00 L 768.00 490.00 L 774.00 494.00 L 756.00 500.00 L 750.00 506.00 L 728.00 510.00 L 696.00 522.00 L 692.00 536.00 L 692.00 560.00 L 696.00 562.00 L 732.00 550.00 L 740.00 552.00 L 742.00 548.00 L 750.00 546.00 L 762.00 548.00 L 774.00 542.00 L 788.00 544.00 L 796.00 540.00 L 810.00 540.00 L 808.00 542.00 L 814.00 546.00 L 834.00 544.00 L 810.00 554.00 L 806.00 552.00 L 792.00 568.00 L 774.00 572.00 L 768.00 578.00 L 756.00 578.00 L 750.00 584.00 L 706.00 598.00 L 686.00 610.00 L 662.00 612.00 L 654.00 602.00 L 648.00 604.00 L 640.00 592.00 L 638.00 578.00 L 656.00 564.00 L 654.00 552.00 L 658.00 522.00 L 650.00 518.00 L 650.00 506.00 L 654.00 504.00 L 652.00 500.00 L 654.00 502.00 L 660.00 496.00 L 662.00 460.00 L 644.00 446.00 L 642.00 436.00 L 648.00 432.00 L 646.00 430.00 L 658.00 422.00 L 666.00 426.00 L 710.00 414.00 L 718.00 416.00 L 720.00 412.00 L 786.00 408.00 Z" fill="#d4af37" fill-opacity="1.000" stroke="#2A2A2A" stroke-opacity="1.000" stroke-width="2.0"/>
  </g>

</a>

  <metadata id="eshine-meta-json">{
  "schemaVersion": 2,
  "name": "ESHINE_favicon_v2",
  "parts": [
    {
      "id": "me",
      "pathD": "M 216.00 348.00 L 218.00 352.00 L 236.00 358.00 L 258.00 354.00 L 264.00 356.00 L 276.00 350.00 L 282.00 354.00 L 294.00 354.00 L 296.00 350.00 L 302.00 356.00 L 314.00 358.00 L 332.00 370.00 L 334.00 368.00 L 352.00 382.00 L 356.00 386.00 L 354.00 388.00 L 362.00 392.00 L 360.00 394.00 L 366.00 404.00 L 372.00 400.00 L 378.00 410.00 L 378.00 420.00 L 384.00 414.00 L 382.00 410.00 L 388.00 402.00 L 386.00 398.00 L 390.00 400.00 L 400.00 386.00 L 434.00 362.00 L 456.00 358.00 L 490.00 358.00 L 496.00 362.00 L 500.00 358.00 L 504.00 362.00 L 512.00 362.00 L 530.00 356.00 L 528.00 390.00 L 522.00 398.00 L 524.00 400.00 L 518.00 414.00 L 502.00 430.00 L 490.00 436.00 L 482.00 446.00 L 482.00 452.00 L 472.00 448.00 L 468.00 454.00 L 456.00 460.00 L 448.00 458.00 L 430.00 464.00 L 426.00 460.00 L 420.00 466.00 L 406.00 466.00 L 398.00 500.00 L 404.00 506.00 L 398.00 508.00 L 398.00 530.00 L 394.00 536.00 L 398.00 540.00 L 398.00 552.00 L 406.00 548.00 L 412.00 536.00 L 404.00 564.00 L 406.00 598.00 L 410.00 612.00 L 416.00 618.00 L 422.00 600.00 L 428.00 604.00 L 436.00 602.00 L 444.00 612.00 L 450.00 602.00 L 452.00 604.00 L 464.00 598.00 L 472.00 606.00 L 472.00 614.00 L 458.00 628.00 L 464.00 632.00 L 462.00 638.00 L 470.00 644.00 L 480.00 646.00 L 480.00 634.00 L 488.00 640.00 L 482.00 642.00 L 486.00 648.00 L 494.00 640.00 L 492.00 638.00 L 500.00 638.00 L 498.00 640.00 L 504.00 644.00 L 498.00 648.00 L 500.00 650.00 L 510.00 648.00 L 512.00 652.00 L 520.00 652.00 L 524.00 656.00 L 532.00 650.00 L 532.00 656.00 L 546.00 654.00 L 548.00 656.00 L 544.00 660.00 L 558.00 666.00 L 600.00 668.00 L 588.00 670.00 L 586.00 674.00 L 552.00 674.00 L 544.00 680.00 L 552.00 682.00 L 544.00 682.00 L 534.00 690.00 L 516.00 690.00 L 514.00 694.00 L 512.00 690.00 L 508.00 694.00 L 502.00 690.00 L 486.00 690.00 L 484.00 684.00 L 478.00 692.00 L 470.00 688.00 L 460.00 690.00 L 464.00 684.00 L 458.00 680.00 L 454.00 684.00 L 430.00 684.00 L 422.00 688.00 L 420.00 684.00 L 416.00 688.00 L 430.00 696.00 L 426.00 702.00 L 430.00 704.00 L 428.00 706.00 L 398.00 704.00 L 394.00 698.00 L 392.00 702.00 L 384.00 696.00 L 382.00 700.00 L 376.00 698.00 L 368.00 702.00 L 364.00 698.00 L 350.00 708.00 L 308.00 704.00 L 304.00 698.00 L 268.00 708.00 L 284.00 698.00 L 278.00 692.00 L 270.00 692.00 L 274.00 690.00 L 272.00 686.00 L 266.00 688.00 L 262.00 684.00 L 258.00 688.00 L 248.00 684.00 L 246.00 694.00 L 248.00 690.00 L 240.00 688.00 L 236.00 704.00 L 230.00 704.00 L 222.00 694.00 L 236.00 684.00 L 232.00 680.00 L 208.00 680.00 L 206.00 676.00 L 212.00 676.00 L 212.00 670.00 L 194.00 674.00 L 186.00 674.00 L 184.00 670.00 L 176.00 674.00 L 180.00 672.00 L 178.00 668.00 L 162.00 670.00 L 188.00 664.00 L 192.00 666.00 L 210.00 658.00 L 214.00 662.00 L 228.00 652.00 L 246.00 652.00 L 266.00 644.00 L 268.00 642.00 L 264.00 640.00 L 268.00 636.00 L 252.00 628.00 L 244.00 618.00 L 246.00 608.00 L 256.00 602.00 L 262.00 602.00 L 272.00 610.00 L 274.00 620.00 L 268.00 628.00 L 286.00 636.00 L 286.00 632.00 L 294.00 632.00 L 302.00 624.00 L 296.00 620.00 L 296.00 612.00 L 290.00 606.00 L 296.00 598.00 L 292.00 592.00 L 308.00 606.00 L 310.00 600.00 L 314.00 604.00 L 314.00 600.00 L 320.00 596.00 L 328.00 606.00 L 324.00 610.00 L 332.00 612.00 L 330.00 598.00 L 334.00 592.00 L 330.00 590.00 L 336.00 586.00 L 340.00 592.00 L 344.00 588.00 L 340.00 586.00 L 344.00 584.00 L 340.00 530.00 L 342.00 528.00 L 346.00 540.00 L 350.00 534.00 L 342.00 490.00 L 336.00 484.00 L 332.00 470.00 L 322.00 460.00 L 316.00 464.00 L 310.00 460.00 L 300.00 460.00 L 298.00 456.00 L 292.00 458.00 L 288.00 454.00 L 280.00 454.00 L 276.00 448.00 L 272.00 450.00 L 248.00 430.00 L 228.00 400.00 L 220.00 374.00 L 220.00 362.00 L 214.00 352.00 L 216.00 350.00 Z",
      "fillArgb": 4278190080,
      "bounds": {
        "minX": 162.0,
        "minY": 348.0,
        "maxX": 602.0,
        "maxY": 714.0
      },
      "zIndex": 0,
      "tags": [],
      "direction": "front",
      "transform": {
        "x": 26.0,
        "y": -38.0,
        "scale": 1.0,
        "rotation": 0.0
      },
      "group": ""
    },
    {
      "id": "e",
      "pathD": "M 786.00 406.00 L 790.00 406.00 L 792.00 412.00 L 794.00 408.00 L 802.00 408.00 L 796.00 410.00 L 826.00 416.00 L 806.00 418.00 L 800.00 414.00 L 786.00 414.00 L 784.00 418.00 L 782.00 414.00 L 774.00 418.00 L 778.00 416.00 L 772.00 408.00 L 768.00 410.00 L 770.00 414.00 L 766.00 418.00 L 760.00 414.00 L 740.00 416.00 L 732.00 426.00 L 740.00 430.00 L 736.00 430.00 L 734.00 432.00 L 738.00 434.00 L 734.00 436.00 L 742.00 442.00 L 748.00 440.00 L 746.00 436.00 L 752.00 436.00 L 752.00 440.00 L 756.00 436.00 L 758.00 438.00 L 760.00 430.00 L 764.00 434.00 L 778.00 430.00 L 780.00 422.00 L 786.00 426.00 L 808.00 426.00 L 770.00 438.00 L 706.00 450.00 L 696.00 458.00 L 698.00 484.00 L 702.00 490.00 L 730.00 484.00 L 736.00 486.00 L 732.00 488.00 L 734.00 492.00 L 736.00 490.00 L 734.00 494.00 L 730.00 490.00 L 722.00 492.00 L 726.00 502.00 L 732.00 498.00 L 736.00 498.00 L 736.00 502.00 L 740.00 498.00 L 742.00 500.00 L 742.00 490.00 L 746.00 490.00 L 744.00 496.00 L 750.00 502.00 L 752.00 498.00 L 754.00 500.00 L 760.00 496.00 L 756.00 492.00 L 762.00 494.00 L 766.00 486.00 L 772.00 486.00 L 772.00 482.00 L 794.00 482.00 L 784.00 482.00 L 770.00 488.00 L 768.00 490.00 L 774.00 494.00 L 756.00 500.00 L 750.00 506.00 L 728.00 510.00 L 696.00 522.00 L 692.00 536.00 L 692.00 560.00 L 696.00 562.00 L 732.00 550.00 L 740.00 552.00 L 742.00 548.00 L 750.00 546.00 L 762.00 548.00 L 774.00 542.00 L 788.00 544.00 L 796.00 540.00 L 810.00 540.00 L 808.00 542.00 L 814.00 546.00 L 834.00 544.00 L 810.00 554.00 L 806.00 552.00 L 792.00 568.00 L 774.00 572.00 L 768.00 578.00 L 756.00 578.00 L 750.00 584.00 L 706.00 598.00 L 686.00 610.00 L 662.00 612.00 L 654.00 602.00 L 648.00 604.00 L 640.00 592.00 L 638.00 578.00 L 656.00 564.00 L 654.00 552.00 L 658.00 522.00 L 650.00 518.00 L 650.00 506.00 L 654.00 504.00 L 652.00 500.00 L 654.00 502.00 L 660.00 496.00 L 662.00 460.00 L 644.00 446.00 L 642.00 436.00 L 648.00 432.00 L 646.00 430.00 L 658.00 422.00 L 666.00 426.00 L 710.00 414.00 L 718.00 416.00 L 720.00 412.00 L 786.00 408.00 Z",
      "fillArgb": 4292128567,
      "bounds": {
        "minX": 638.0,
        "minY": 406.0,
        "maxX": 836.0,
        "maxY": 614.0
      },
      "zIndex": 1,
      "tags": [],
      "direction": "front",
      "transform": {
        "x": -279.75561463725876,
        "y": -40.23985924508553,
        "scale": 0.8000000000000002,
        "rotation": 0.0
      },
      "group": ""
    }
  ],
  "meta": {
    "createdAt": "2026-05-02",
    "sourceWidth": 1024,
    "sourceHeight": 1024
  }
}</metadata>
</svg>
