<svg xmlns="http://www.w3.org/2000/svg" width="496.00" height="502.00" viewBox="274.00 260.00 496.00 502.00" data-eshine-id="8bf49a80-9650-4184-916d-d572d7a0b0cd" data-eshine-version="1" data-eshine-generator="ESHINE">
<desc>Made with ESHINE — https://eshine.app · AI collaboration edit (Cursor)</desc>
<!-- AI協業デモ: Cursor がパーツ単位で編集（2026-06-30） -->
  <rect x="274" y="260" width="496" height="502" fill="#F5EFE6"/>
  <g id="rabbit" transform="translate(522.00 567.00) rotate(0.00) scale(1.0000) translate(-522.00 -567.00)">
    <path d="M 309.999 762.004 L 318.004 745.998 L 336.000 724.000 L 354.005 718.002 L 398.005 713.999 L 432.003 702.004 L 452.005 690.000 L 477.996 664.005 L 490.00 644.00 L 550.00 620.00 L 584.00 600.00 L 680.00 592.00 L 762.00 596.00 L 770.00 588.00 L 770.00 578.00 L 746.00 562.00 L 698.00 552.00 L 642.00 550.00 L 658.00 520.00 L 666.00 488.00 L 704.00 472.00 L 720.00 458.00 L 724.00 450.00 L 724.00 426.00 L 714.00 406.00 L 688.00 382.00 L 668.00 374.00 L 640.00 372.00 L 594.00 384.00 L 576.00 408.00 L 568.00 432.00 L 560.00 456.00 L 550.00 464.00 L 492.00 486.00 L 450.00 508.00 L 410.00 536.00 L 366.00 584.00 L 360.00 564.00 L 348.00 550.00 L 330.00 542.00 L 318.00 542.00 L 304.00 548.00 L 292.00 566.00 L 292.00 586.00 L 298.00 600.00 L 316.00 616.00 L 348.00 622.00 L 342.00 636.00 L 338.00 662.00 L 310.00 672.00 L 296.00 686.00 L 274.00 728.00 Z" fill="#FFF8E8" fill-opacity="1.000" stroke="#C8854A" stroke-opacity="1.000" stroke-width="3.0" stroke-linejoin="round" stroke-linecap="round" paint-order="stroke fill" vector-effect="non-scaling-stroke"/>
  </g>
  <g id="ear" transform="translate(607.00 334.00) rotate(-12.00) scale(1.0000) translate(-607.00 -334.00)">
    <path d="M 562.00 260.00 L 570.00 260.00 L 586.00 268.00 L 612.00 294.00 L 630.00 326.00 L 640.00 374.00 L 668.00 376.00 L 698.00 392.00 L 628.00 396.00 L 578.00 408.00 L 596.00 384.00 L 570.00 372.00 L 544.00 350.00 L 524.00 318.00 L 516.00 292.00 L 516.00 274.00 L 522.00 274.00 L 548.00 284.00 L 562.00 296.00 L 562.00 262.00 Z" fill="#ffffff" fill-opacity="1.000" stroke="#2A2A2A" stroke-opacity="1.000" stroke-width="2.0" stroke-linejoin="round" stroke-linecap="round" paint-order="stroke fill" vector-effect="non-scaling-stroke"/>
  </g>
  <g id="hachimaki" transform="translate(535.00 424.00) rotate(0.00) scale(1.0000) translate(-535.00 -424.00)">
    <path d="M 350.00 374.00 L 372.00 374.00 L 390.00 384.00 L 416.00 406.00 L 440.00 414.00 L 460.00 414.00 L 466.00 410.00 L 470.00 412.00 L 508.00 402.00 L 532.00 404.00 L 536.00 408.00 L 544.00 406.00 L 556.00 412.00 L 574.00 412.00 L 616.00 400.00 L 622.00 402.00 L 648.00 396.00 L 662.00 398.00 L 676.00 394.00 L 700.00 394.00 L 720.00 424.00 L 692.00 432.00 L 682.00 430.00 L 656.00 434.00 L 610.00 434.00 L 536.00 424.00 L 502.00 426.00 L 480.00 440.00 L 450.00 468.00 L 434.00 474.00 L 418.00 474.00 L 404.00 466.00 L 422.00 462.00 L 442.00 452.00 L 458.00 436.00 L 410.00 428.00 L 374.00 410.00 L 352.00 384.00 L 352.00 376.00 Z" fill="#C41E3A" fill-opacity="1.000" stroke="#2A2A2A" stroke-opacity="1.000" stroke-width="2.0" stroke-linejoin="round" stroke-linecap="round" paint-order="stroke fill" vector-effect="non-scaling-stroke"/>
  </g>
  <g id="ai-sparkle" transform="translate(710.00 295.00) rotate(0.00) scale(1.0000) translate(-710.00 -295.00)">
    <path d="M 710.00 268.00 L 718.00 288.00 L 738.00 295.00 L 718.00 302.00 L 710.00 322.00 L 702.00 302.00 L 682.00 295.00 L 702.00 288.00 Z" fill="#FFD700" fill-opacity="1.000" stroke="#C8854A" stroke-opacity="1.000" stroke-width="2.0" stroke-linejoin="round" paint-order="stroke fill" vector-effect="non-scaling-stroke"/>
    <path d="M 748.00 250.00 L 752.00 260.00 L 762.00 264.00 L 752.00 268.00 L 748.00 278.00 L 744.00 268.00 L 734.00 264.00 L 744.00 260.00 Z" fill="#FFD700" fill-opacity="0.900" stroke="none"/>
  </g>

  <metadata id="eshine-meta-json">{
  "schemaVersion": 2,
  "name": "LP_sample_ai_collab",
  "parts": [
    {
      "id": "rabbit",
      "pathD": "M 310.00 762.00 L 318.00 746.00 L 336.00 724.00 L 354.00 718.00 L 398.00 714.00 L 432.00 702.00 L 452.00 690.00 L 478.00 664.00 L 490.00 644.00 L 550.00 620.00 L 584.00 600.00 L 680.00 592.00 L 762.00 596.00 L 770.00 588.00 L 770.00 578.00 L 746.00 562.00 L 698.00 552.00 L 642.00 550.00 L 658.00 520.00 L 666.00 488.00 L 704.00 472.00 L 720.00 458.00 L 724.00 450.00 L 724.00 426.00 L 714.00 406.00 L 688.00 382.00 L 668.00 374.00 L 640.00 372.00 L 594.00 384.00 L 576.00 408.00 L 568.00 432.00 L 560.00 456.00 L 550.00 464.00 L 492.00 486.00 L 450.00 508.00 L 410.00 536.00 L 366.00 584.00 L 360.00 564.00 L 348.00 550.00 L 330.00 542.00 L 318.00 542.00 L 304.00 548.00 L 292.00 566.00 L 292.00 586.00 L 298.00 600.00 L 316.00 616.00 L 348.00 622.00 L 342.00 636.00 L 338.00 662.00 L 310.00 672.00 L 296.00 686.00 L 274.00 728.00 Z",
      "fillArgb": 4294967272,
      "bounds": { "minX": 274.0, "minY": 372.0, "maxX": 770.0, "maxY": 762.0 },
      "zIndex": 0,
      "tags": ["ai-edited"],
      "direction": "right",
      "transform": { "x": 0.0, "y": 0.0, "scale": 1.0, "rotation": 0.0 },
      "group": ""
    },
    {
      "id": "ear",
      "pathD": "M 562.00 260.00 L 570.00 260.00 L 586.00 268.00 L 612.00 294.00 L 630.00 326.00 L 640.00 374.00 L 668.00 376.00 L 698.00 392.00 L 628.00 396.00 L 578.00 408.00 L 596.00 384.00 L 570.00 372.00 L 544.00 350.00 L 524.00 318.00 L 516.00 292.00 L 516.00 274.00 L 522.00 274.00 L 548.00 284.00 L 562.00 296.00 L 562.00 262.00 Z",
      "fillArgb": 4294967295,
      "bounds": { "minX": 516.0, "minY": 260.0, "maxX": 698.0, "maxY": 408.0 },
      "zIndex": 1,
      "tags": ["ai-edited"],
      "direction": "front",
      "transform": { "x": 0.0, "y": 0.0, "scale": 1.0, "rotation": -12.0 },
      "group": ""
    },
    {
      "id": "hachimaki",
      "pathD": "M 350.00 374.00 L 372.00 374.00 L 390.00 384.00 L 416.00 406.00 L 440.00 414.00 L 460.00 414.00 L 466.00 410.00 L 470.00 412.00 L 508.00 402.00 L 532.00 404.00 L 536.00 408.00 L 544.00 406.00 L 556.00 412.00 L 574.00 412.00 L 616.00 400.00 L 622.00 402.00 L 648.00 396.00 L 662.00 398.00 L 676.00 394.00 L 700.00 394.00 L 720.00 424.00 L 692.00 432.00 L 682.00 430.00 L 656.00 434.00 L 610.00 434.00 L 536.00 424.00 L 502.00 426.00 L 480.00 440.00 L 450.00 468.00 L 434.00 474.00 L 418.00 474.00 L 404.00 466.00 L 422.00 462.00 L 442.00 452.00 L 458.00 436.00 L 410.00 428.00 L 374.00 410.00 L 352.00 384.00 L 352.00 376.00 Z",
      "fillArgb": 4291634746,
      "bounds": { "minX": 350.0, "minY": 374.0, "maxX": 720.0, "maxY": 474.0 },
      "zIndex": 2,
      "tags": ["ai-edited"],
      "direction": "front",
      "transform": { "x": 0.0, "y": 0.0, "scale": 1.0, "rotation": 0.0 },
      "group": ""
    },
    {
      "id": "ai-sparkle",
      "pathD": "M 710.00 268.00 L 718.00 288.00 L 738.00 295.00 L 718.00 302.00 L 710.00 322.00 L 702.00 302.00 L 682.00 295.00 L 702.00 288.00 Z",
      "fillArgb": 4294956800,
      "bounds": { "minX": 682.0, "minY": 250.0, "maxX": 762.0, "maxY": 322.0 },
      "zIndex": 3,
      "tags": ["ai-added"],
      "direction": "front",
      "transform": { "x": 0.0, "y": 0.0, "scale": 1.0, "rotation": 0.0 },
      "group": ""
    }
  ],
  "meta": {
    "createdAt": "2026-06-30",
    "updatedAt": "2026-06-30",
    "createdBy": "nomisuke0611",
    "editedBy": "Cursor AI",
    "aiCollaboration": "パーツ単位編集デモ（hachimaki 色変更・ear 回転・ai-sparkle 追加）",
    "sourceWidth": 1024,
    "sourceHeight": 1024,
    "contentViewBox": { "x": 274.0, "y": 260.0, "width": 496.0, "height": 502.0 }
  }
}</metadata>
</svg>
