<?xml version="1.0" encoding="UTF-8"?>
<svg xmlns="http://www.w3.org/2000/svg" width="496" height="502" viewBox="274 260 496 502" data-eshine-generator="ESHINE">
<desc>Made with ESHINE - https://eshine.app</desc>
  <rect x="274" y="260" width="496" height="502" fill="#F5EFE6"/>
  <g id="rabbit" transform="translate(522.00 567.00) rotate(0.00) scale(1.0000) translate(-522.00 -567.00)">
    <path d="M 309.999 762.004 L 318.004 745.998 L 336.000 724.000 L 354.005 718.002 L 398.005 713.999 L 432.003 702.004 L 452.005 690.000 L 477.996 664.005 L 490.00 644.00 L 550.00 620.00 L 584.00 600.00 L 680.00 592.00 L 762.00 596.00 L 770.00 588.00 L 770.00 578.00 L 746.00 562.00 L 698.00 552.00 L 642.00 550.00 L 658.00 520.00 L 666.00 488.00 L 704.00 472.00 L 720.00 458.00 L 724.00 450.00 L 724.00 426.00 L 714.00 406.00 L 688.00 382.00 L 668.00 374.00 L 640.00 372.00 L 594.00 384.00 L 576.00 408.00 L 568.00 432.00 L 560.00 456.00 L 550.00 464.00 L 492.00 486.00 L 450.00 508.00 L 410.00 536.00 L 366.00 584.00 L 360.00 564.00 L 348.00 550.00 L 330.00 542.00 L 318.00 542.00 L 304.00 548.00 L 292.00 566.00 L 292.00 586.00 L 298.00 600.00 L 316.00 616.00 L 348.00 622.00 L 342.00 636.00 L 338.00 662.00 L 310.00 672.00 L 296.00 686.00 L 274.00 728.00 Z" fill="#ffffff" fill-opacity="1.000" stroke="#2A2A2A" stroke-opacity="1.000" stroke-width="2.0" stroke-linejoin="round" stroke-linecap="round" paint-order="stroke fill" vector-effect="non-scaling-stroke"/>
  </g>
  <g id="ear" transform="translate(607.00 334.00) rotate(0.00) scale(1.0000) translate(-607.00 -334.00)">
    <path d="M 562.00 260.00 L 570.00 260.00 L 586.00 268.00 L 612.00 294.00 L 630.00 326.00 L 640.00 374.00 L 668.00 376.00 L 698.00 392.00 L 628.00 396.00 L 578.00 408.00 L 596.00 384.00 L 570.00 372.00 L 544.00 350.00 L 524.00 318.00 L 516.00 292.00 L 516.00 274.00 L 522.00 274.00 L 548.00 284.00 L 562.00 296.00 L 562.00 262.00 Z" fill="#ffffff" fill-opacity="1.000" stroke="#2A2A2A" stroke-opacity="1.000" stroke-width="2.0" stroke-linejoin="round" stroke-linecap="round" paint-order="stroke fill" vector-effect="non-scaling-stroke"/>
  </g>
  <g id="hachimaki" transform="translate(535.00 424.00) rotate(0.00) scale(1.0000) translate(-535.00 -424.00)">
    <path d="M 350.00 374.00 L 372.00 374.00 L 390.00 384.00 L 416.00 406.00 L 440.00 414.00 L 460.00 414.00 L 466.00 410.00 L 470.00 412.00 L 508.00 402.00 L 532.00 404.00 L 536.00 408.00 L 544.00 406.00 L 556.00 412.00 L 574.00 412.00 L 616.00 400.00 L 622.00 402.00 L 648.00 396.00 L 662.00 398.00 L 676.00 394.00 L 700.00 394.00 L 720.00 424.00 L 692.00 432.00 L 682.00 430.00 L 656.00 434.00 L 610.00 434.00 L 536.00 424.00 L 502.00 426.00 L 480.00 440.00 L 450.00 468.00 L 434.00 474.00 L 418.00 474.00 L 404.00 466.00 L 422.00 462.00 L 442.00 452.00 L 458.00 436.00 L 410.00 428.00 L 374.00 410.00 L 352.00 384.00 L 352.00 376.00 Z" fill="#e08000" fill-opacity="1.000" stroke="#2A2A2A" stroke-opacity="1.000" stroke-width="2.0" stroke-linejoin="round" stroke-linecap="round" paint-order="stroke fill" vector-effect="non-scaling-stroke"/>
  </g>
</svg>
