<svg xmlns="http://www.w3.org/2000/svg"    data-eshine-id="aeaf088b-7916-4f2a-89c0-1350f493dfae" data-eshine-version="1" data-eshine-generator="ESHINE" shape-rendering="geometricPrecision" width="472" height="472" viewBox="105 105 472 472">
<desc>Made with ESHINE — https://eshine.app</desc>
  <defs>
    <clipPath id="icon-circle-clip" clipPathUnits="userSpaceOnUse">
      <circle cx="341" cy="341" r="236"/>
    </clipPath>
</defs>
  <g clip-path="url(#icon-circle-clip)">
  <circle cx="341" cy="341" r="236" fill="#000000"/>
  <g>
  <g id="icon-content-scale" transform="translate(347.66 339.00) scale(1.3000) translate(-347.66 -339.00)">
  <g id="rabbit" transform="translate(347.66 339.00) rotate(0.00) scale(1.0000) translate(-347.66 -339.00)">
    <path d="M 211.794 499.679 Q 211.794 499.679 213.125 497.515 Q 214.456 495.351 215.746 493.478 Q 217.036 491.606 218.285 490.024 Q 219.534 488.442 220.741 487.151 Q 221.949 485.860 223.115 484.860 Q 224.281 483.860 226.446 482.944 Q 228.611 482.028 231.775 481.195 Q 234.939 480.362 239.101 479.614 Q 243.264 478.865 248.425 478.200 Q 253.586 477.535 258.123 476.786 Q 262.660 476.038 266.573 475.205 Q 270.485 474.373 273.773 473.456 Q 277.061 472.540 279.725 471.540 Q 282.389 470.540 284.761 469.540 Q 287.134 468.541 289.215 467.541 Q 291.296 466.542 293.086 465.543 Q 294.876 464.544 296.375 463.545 Q 297.874 462.546 299.498 461.298 Q 301.121 460.049 302.870 458.551 Q 304.619 457.053 306.492 455.305 Q 308.366 453.558 310.365 451.560 Q 312.364 449.563 314.154 447.606 Q 315.944 445.650 317.526 443.735 Q 319.108 441.820 320.482 439.946 Q 321.855 438.073 323.020 436.240 Q 324.185 434.407 325.891 432.742 Q 327.598 431.076 329.845 429.578 Q 332.093 428.079 334.881 426.747 Q 337.670 425.415 341.000 424.250 Q 344.330 423.085 347.952 421.587 Q 351.573 420.089 355.486 418.258 Q 359.399 416.426 363.604 414.262 Q 367.809 412.098 372.305 409.600 Q 376.801 407.102 381.048 405.229 Q 385.294 403.356 389.290 402.107 Q 393.286 400.859 397.033 400.234 Q 400.779 399.610 404.275 399.610 Q 407.771 399.610 411.184 399.485 Q 414.597 399.360 417.927 399.110 Q 421.257 398.860 424.504 398.485 Q 427.751 398.110 430.915 397.610 Q 434.079 397.110 437.659 396.735 Q 441.239 396.360 445.235 396.110 Q 449.231 395.860 453.644 395.735 Q 458.056 395.610 462.885 395.610 Q 467.714 395.610 471.627 395.693 Q 475.539 395.777 478.536 395.944 Q 481.533 396.111 483.614 396.361 Q 485.695 396.611 486.860 396.945 Q 488.025 397.279 489.357 397.529 Q 490.688 397.779 492.186 397.946 Q 493.684 398.113 495.349 398.197 Q 497.014 398.280 498.845 398.280 Q 500.676 398.280 502.258 398.113 Q 503.839 397.947 505.171 397.614 Q 506.503 397.281 507.585 396.781 Q 508.668 396.281 509.500 395.615 Q 510.333 394.949 510.957 394.199 Q 511.581 393.450 511.998 392.617 Q 512.414 391.785 512.622 390.869 Q 512.830 389.954 512.830 388.955 Q 512.830 387.956 512.622 386.999 Q 512.414 386.042 511.998 385.126 Q 511.581 384.211 510.957 383.337 Q 510.333 382.463 509.500 381.630 Q 508.668 380.798 507.752 380.048 Q 506.836 379.299 505.838 378.633 Q 504.839 377.966 503.757 377.383 Q 502.675 376.800 501.510 376.300 Q 500.345 375.800 498.472 375.217 Q 496.599 374.634 494.019 373.968 Q 491.438 373.301 488.150 372.552 Q 484.861 371.803 480.865 370.970 Q 476.869 370.138 472.747 369.472 Q 468.626 368.806 464.380 368.306 Q 460.134 367.807 455.763 367.474 Q 451.391 367.141 446.895 366.975 Q 442.399 366.809 439.360 366.060 Q 436.321 365.311 434.739 363.979 Q 433.157 362.647 433.032 360.732 Q 432.907 358.818 434.240 356.320 Q 435.573 353.823 436.697 351.283 Q 437.821 348.744 438.738 346.164 Q 439.654 343.583 440.362 340.961 Q 441.070 338.339 441.570 335.675 Q 442.070 333.011 442.778 330.930 Q 443.486 328.849 444.401 327.350 Q 445.317 325.851 446.440 324.935 Q 447.564 324.019 448.895 323.685 Q 450.226 323.351 451.891 322.726 Q 453.556 322.101 455.554 321.185 Q 457.552 320.269 459.883 319.061 Q 462.215 317.854 464.880 316.355 Q 467.545 314.856 469.793 313.399 Q 472.042 311.943 473.874 310.528 Q 475.706 309.113 477.121 307.739 Q 478.536 306.366 479.535 305.035 Q 480.534 303.704 481.283 302.247 Q 482.032 300.791 482.531 299.209 Q 483.031 297.627 483.280 295.920 Q 483.530 294.213 483.530 292.380 Q 483.530 290.548 483.197 288.591 Q 482.864 286.634 482.198 284.553 Q 481.531 282.471 480.532 280.266 Q 479.533 278.060 478.200 275.730 Q 476.868 273.400 475.369 271.236 Q 473.870 269.073 472.205 267.075 Q 470.540 265.078 468.709 263.246 Q 466.878 261.415 464.880 259.750 Q 462.883 258.085 461.093 256.711 Q 459.303 255.338 457.721 254.255 Q 456.139 253.173 454.765 252.381 Q 453.391 251.590 452.225 251.090 Q 451.059 250.590 449.560 250.173 Q 448.061 249.757 446.229 249.424 Q 444.397 249.091 442.232 248.841 Q 440.068 248.591 437.570 248.425 Q 435.073 248.259 433.075 247.343 Q 431.077 246.428 429.579 244.763 Q 428.081 243.098 427.082 240.683 Q 426.084 238.269 425.585 235.105 Q 425.086 231.941 424.462 228.986 Q 423.838 226.030 423.089 223.282 Q 422.339 220.535 421.465 217.996 Q 420.590 215.456 419.590 213.125 Q 418.590 210.794 417.299 208.379 Q 416.008 205.965 414.426 203.468 Q 412.844 200.970 410.972 198.389 Q 409.099 195.809 406.935 193.145 Q 404.771 190.481 402.607 188.150 Q 400.443 185.819 398.279 183.821 Q 396.114 181.823 393.950 180.158 Q 391.785 178.493 389.620 177.160 Q 387.455 175.828 385.623 174.828 Q 383.791 173.829 382.292 173.163 Q 380.794 172.496 379.628 172.163 Q 378.463 171.830 377.630 171.830 Q 376.798 171.830 376.090 171.913 Q 375.383 171.997 374.800 172.164 Q 374.218 172.331 373.760 172.581 Q 373.303 172.831 372.970 173.165 Q 372.638 173.499 372.471 174.373 Q 372.305 175.248 372.305 176.664 Q 372.305 178.079 372.471 180.036 Q 372.638 181.993 372.970 184.490 Q 373.303 186.987 373.177 188.569 Q 373.052 190.151 372.469 190.816 Q 371.886 191.482 370.845 191.232 Q 369.804 190.981 368.305 189.815 Q 366.806 188.649 365.349 187.649 Q 363.893 186.650 362.478 185.818 Q 361.063 184.985 359.689 184.319 Q 358.316 183.654 356.985 183.155 Q 355.654 182.656 354.405 182.282 Q 353.157 181.908 351.991 181.659 Q 350.826 181.409 349.743 181.285 Q 348.660 181.160 347.660 181.160 Q 346.660 181.160 345.868 181.659 Q 345.077 182.159 344.494 183.158 Q 343.911 184.156 343.536 185.654 Q 343.161 187.153 342.995 189.150 Q 342.829 191.147 342.871 193.145 Q 342.913 195.143 343.163 197.141 Q 343.413 199.139 343.871 201.138 Q 344.329 203.136 344.995 205.135 Q 345.661 207.134 346.494 209.174 Q 347.327 211.214 348.326 213.295 Q 349.326 215.376 350.492 217.499 Q 351.657 219.621 352.990 221.785 Q 354.323 223.949 355.988 226.196 Q 357.653 228.443 359.651 230.774 Q 361.649 233.104 363.980 235.518 Q 366.311 237.933 368.975 240.430 Q 371.639 242.928 374.094 244.967 Q 376.550 247.007 378.797 248.589 Q 381.045 250.171 383.084 251.295 Q 385.124 252.419 386.955 253.085 Q 388.786 253.751 389.827 254.750 Q 390.867 255.749 391.117 257.081 Q 391.367 258.413 390.827 260.078 Q 390.286 261.743 388.955 263.740 Q 387.624 265.738 386.551 267.849 Q 385.477 269.961 384.662 272.188 Q 383.847 274.414 383.291 276.754 Q 382.734 279.095 382.435 281.550 Q 382.136 284.005 381.570 286.357 Q 381.004 288.708 380.171 290.956 Q 379.338 293.204 378.238 295.349 Q 377.138 297.494 375.770 299.535 Q 374.403 301.576 371.920 303.648 Q 369.438 305.721 365.840 307.824 Q 362.243 309.927 357.530 312.061 Q 352.818 314.195 346.990 316.360 Q 341.162 318.525 335.668 320.815 Q 330.174 323.104 325.013 325.519 Q 319.851 327.933 315.023 330.472 Q 310.195 333.011 305.700 335.675 Q 301.205 338.339 297.168 340.836 Q 293.131 343.333 289.551 345.664 Q 285.972 347.994 282.850 350.158 Q 279.729 352.323 277.065 354.320 Q 274.401 356.318 271.904 358.357 Q 269.406 360.396 267.075 362.478 Q 264.744 364.559 262.579 366.682 Q 260.414 368.805 258.415 370.970 Q 256.416 373.135 254.751 375.050 Q 253.085 376.965 251.753 378.630 Q 250.420 380.295 249.421 381.710 Q 248.421 383.125 247.755 384.290 Q 247.089 385.455 246.381 385.829 Q 245.673 386.204 244.924 385.788 Q 244.174 385.371 243.383 384.164 Q 242.593 382.958 241.760 380.960 Q 240.928 378.963 239.887 377.131 Q 238.846 375.300 237.598 373.635 Q 236.349 371.970 234.892 370.471 Q 233.435 368.972 231.770 367.640 Q 230.105 366.308 228.273 365.308 Q 226.442 364.309 224.444 363.643 Q 222.446 362.976 220.281 362.643 Q 218.116 362.310 215.785 362.310 Q 213.454 362.310 211.539 362.435 Q 209.624 362.560 208.126 362.810 Q 206.628 363.060 205.547 363.435 Q 204.465 363.810 203.800 364.310 Q 203.135 364.810 202.386 365.601 Q 201.638 366.393 200.805 367.475 Q 199.973 368.558 199.056 369.931 Q 198.140 371.305 197.140 372.970 Q 196.140 374.635 195.515 376.467 Q 194.890 378.298 194.640 380.296 Q 194.390 382.294 194.515 384.459 Q 194.640 386.624 195.140 388.955 Q 195.640 391.286 196.473 393.451 Q 197.306 395.616 198.471 397.614 Q 199.637 399.612 201.135 401.443 Q 202.634 403.275 204.465 404.940 Q 206.296 406.605 208.294 407.937 Q 210.292 409.269 212.456 410.268 Q 214.621 411.266 216.952 411.932 Q 219.283 412.598 221.780 412.930 Q 224.278 413.263 225.943 414.053 Q 227.608 414.844 228.440 416.093 Q 229.273 417.341 229.273 419.048 Q 229.273 420.755 228.440 422.920 Q 227.608 425.085 226.983 427.000 Q 226.359 428.915 225.943 430.580 Q 225.526 432.245 225.318 433.660 Q 225.110 435.075 225.110 436.240 Q 225.110 437.405 224.777 438.362 Q 224.444 439.319 223.779 440.069 Q 223.113 440.818 222.115 441.360 Q 221.116 441.901 219.785 442.235 Q 218.454 442.569 217.039 443.069 Q 215.624 443.569 214.126 444.235 Q 212.628 444.901 211.047 445.734 Q 209.465 446.566 207.800 447.565 Q 206.135 448.564 204.303 450.395 Q 202.472 452.226 200.474 454.890 Q 198.476 457.554 196.311 461.050 Q 194.146 464.546 191.815 468.875 Q 189.484 473.204 187.735 476.367 Q 185.987 479.531 184.821 481.529 Q 183.656 483.527 183.073 484.360 Q 182.490 485.192 182.490 484.860 Q 182.490 484.528 183.281 484.986 Q 184.072 485.444 185.654 486.693 Q 187.236 487.941 189.608 489.981 Q 191.981 492.020 195.145 494.850 Q 198.309 497.680 201.014 499.262 Q 203.720 500.843 205.968 501.176 Q 208.215 501.509 210.004 500.594 Z" fill="#ffffff" fill-opacity="1.000" stroke="#2A2A2A" stroke-opacity="1.000" stroke-width="2.0" stroke-linejoin="round" stroke-linecap="round" paint-order="stroke fill" vector-effect="non-scaling-stroke"/>
  </g>
  <g id="hachimaki" transform="translate(356.32 283.06) rotate(0.00) scale(1.0000) translate(-356.32 -283.06)">
    <path d="M 239.934 249.589 Q 239.934 249.589 241.765 249.755 Q 243.596 249.921 245.303 250.213 Q 247.009 250.504 248.591 250.920 Q 250.173 251.336 251.630 251.878 Q 253.087 252.419 254.420 253.085 Q 255.752 253.751 257.251 254.709 Q 258.750 255.666 260.415 256.915 Q 262.080 258.164 263.911 259.704 Q 265.743 261.244 267.740 263.075 Q 269.738 264.906 271.777 266.446 Q 273.816 267.986 275.898 269.235 Q 277.979 270.484 280.102 271.441 Q 282.225 272.399 284.390 273.065 Q 286.555 273.731 288.928 274.189 Q 291.301 274.648 293.881 274.898 Q 296.462 275.148 299.250 275.189 Q 302.039 275.231 305.035 275.065 Q 308.031 274.899 310.487 274.649 Q 312.942 274.399 314.856 274.066 Q 316.771 273.733 318.144 273.317 Q 319.518 272.900 320.350 272.400 Q 321.183 271.900 322.182 271.525 Q 323.181 271.150 324.346 270.900 Q 325.512 270.650 326.844 270.525 Q 328.176 270.400 329.675 270.400 Q 331.174 270.400 332.381 270.317 Q 333.589 270.234 334.505 270.068 Q 335.421 269.901 336.046 269.652 Q 336.671 269.403 337.005 269.070 Q 337.339 268.737 338.297 268.571 Q 339.254 268.405 340.836 268.405 Q 342.418 268.405 344.624 268.571 Q 346.830 268.737 349.660 269.070 Q 352.490 269.403 354.821 269.777 Q 357.151 270.151 358.982 270.568 Q 360.814 270.984 362.146 271.442 Q 363.477 271.900 364.310 272.400 Q 365.143 272.900 366.391 273.275 Q 367.640 273.650 369.305 273.900 Q 370.970 274.150 373.051 274.275 Q 375.133 274.400 377.630 274.400 Q 380.128 274.400 382.833 274.150 Q 385.539 273.901 388.453 273.401 Q 391.366 272.902 394.488 272.153 Q 397.610 271.404 400.940 270.405 Q 404.270 269.406 408.391 268.574 Q 412.512 267.741 417.424 267.075 Q 422.336 266.409 428.038 265.909 Q 433.741 265.409 440.235 265.075 Q 446.729 264.741 451.849 264.741 Q 456.969 264.740 460.715 265.073 Q 464.461 265.405 466.834 266.071 Q 469.206 266.736 470.205 267.735 Q 471.204 268.734 472.078 269.691 Q 472.952 270.648 473.701 271.564 Q 474.451 272.479 475.075 273.353 Q 475.700 274.227 476.200 275.060 Q 476.700 275.893 477.075 276.683 Q 477.450 277.474 477.700 278.224 Q 477.950 278.973 478.075 279.681 Q 478.200 280.389 478.200 281.055 Q 478.200 281.721 477.076 282.388 Q 475.952 283.054 473.704 283.720 Q 471.456 284.386 468.083 285.053 Q 464.711 285.719 460.215 286.385 Q 455.719 287.051 451.181 287.551 Q 446.644 288.051 442.065 288.384 Q 437.486 288.717 432.866 288.883 Q 428.246 289.050 423.585 289.050 Q 418.924 289.050 413.929 288.842 Q 408.934 288.634 403.606 288.218 Q 398.278 287.801 392.617 287.177 Q 386.955 286.553 380.960 285.720 Q 374.965 284.888 369.844 284.305 Q 364.724 283.722 360.477 283.389 Q 356.231 283.056 352.859 282.972 Q 349.487 282.889 346.990 283.055 Q 344.493 283.221 342.203 283.513 Q 339.914 283.804 337.833 284.220 Q 335.751 284.636 333.878 285.178 Q 332.005 285.719 330.340 286.385 Q 328.675 287.051 326.968 288.051 Q 325.262 289.050 323.514 290.383 Q 321.766 291.715 319.976 293.381 Q 318.186 295.046 316.355 297.045 Q 314.524 299.044 312.443 300.917 Q 310.362 302.791 308.031 304.539 Q 305.701 306.287 303.120 307.910 Q 300.540 309.533 297.710 311.030 Q 294.880 312.528 292.508 313.609 Q 290.135 314.691 288.220 315.356 Q 286.305 316.022 284.847 316.272 Q 283.390 316.521 282.390 316.355 Q 281.390 316.189 280.390 315.897 Q 279.391 315.606 278.391 315.190 Q 277.392 314.774 276.393 314.232 Q 275.394 313.691 274.395 313.025 Q 273.396 312.359 273.230 311.693 Q 273.064 311.027 273.730 310.361 Q 274.396 309.696 275.895 309.030 Q 277.394 308.365 279.725 307.700 Q 282.056 307.035 284.138 306.328 Q 286.219 305.621 288.051 304.873 Q 289.883 304.124 291.465 303.333 Q 293.048 302.543 294.380 301.710 Q 295.713 300.878 296.878 300.003 Q 298.044 299.129 299.044 298.213 Q 300.043 297.296 300.876 296.338 Q 301.709 295.380 302.375 294.380 Q 303.041 293.380 302.458 292.422 Q 301.876 291.464 300.044 290.548 Q 298.212 289.631 295.131 288.757 Q 292.050 287.883 287.720 287.050 Q 283.390 286.218 280.101 285.510 Q 276.812 284.803 274.564 284.220 Q 272.316 283.638 271.108 283.180 Q 269.901 282.722 269.735 282.390 Q 269.569 282.058 268.986 281.642 Q 268.404 281.226 267.405 280.726 Q 266.406 280.227 264.991 279.644 Q 263.576 279.061 261.745 278.395 Q 259.914 277.729 258.041 276.771 Q 256.168 275.814 254.253 274.565 Q 252.338 273.316 250.381 271.776 Q 248.424 270.236 246.425 268.405 Q 244.426 266.574 242.802 264.951 Q 241.179 263.328 239.930 261.913 Q 238.681 260.498 237.808 259.291 Q 236.934 258.084 236.435 257.085 Q 235.936 256.086 235.604 255.254 Q 235.271 254.421 235.105 253.755 Q 234.939 253.089 234.939 252.589 Q 234.939 252.089 235.105 251.755 Q 235.271 251.421 235.354 251.129 Q 235.438 250.838 235.438 250.588 Q 235.438 250.338 235.354 250.129 Q 235.271 249.921 235.105 249.755 Q 234.939 249.589 235.272 249.506 Q 235.605 249.422 236.437 249.422 Q 237.270 249.422 238.602 249.506 Z" fill="#ffc107" fill-opacity="1.000" stroke="#2A2A2A" stroke-opacity="1.000" stroke-width="2.0" stroke-linejoin="round" stroke-linecap="round" paint-order="stroke fill" vector-effect="non-scaling-stroke"/>
  </g>
  </g>
  </g>
  </g>
</svg>